<mxfile host="app.diagrams.net" modified="2024-04-17T14:45:21.804Z" agent="Mozilla/5.0 (Windows NT 10.0; Win64; x64) AppleWebKit/537.36 (KHTML, like Gecko) Chrome/123.0.0.0 Safari/537.36" etag="TugTG8Sz_C5aj1IyHh4p" version="24.2.2" type="github">
  <diagram name="Page-1" id="YrOskQe17YLazxtHrfp5">
    <mxGraphModel dx="2243" dy="688" grid="1" gridSize="10" guides="1" tooltips="1" connect="1" arrows="1" fold="1" page="1" pageScale="1" pageWidth="850" pageHeight="1100" math="0" shadow="0">
      <root>
        <mxCell id="0" />
        <mxCell id="1" parent="0" />
        <mxCell id="qkLTvaKcJclY-IIzOnDz-3" value="" style="edgeStyle=orthogonalEdgeStyle;rounded=0;orthogonalLoop=1;jettySize=auto;html=1;" edge="1" parent="1" source="qkLTvaKcJclY-IIzOnDz-1" target="qkLTvaKcJclY-IIzOnDz-2">
          <mxGeometry relative="1" as="geometry" />
        </mxCell>
        <mxCell id="qkLTvaKcJclY-IIzOnDz-1" value="Create&lt;br&gt;AI model" style="rounded=1;whiteSpace=wrap;html=1;" vertex="1" parent="1">
          <mxGeometry x="107" y="330" width="120" height="60" as="geometry" />
        </mxCell>
        <mxCell id="qkLTvaKcJclY-IIzOnDz-36" value="" style="edgeStyle=orthogonalEdgeStyle;rounded=0;orthogonalLoop=1;jettySize=auto;html=1;" edge="1" parent="1" source="qkLTvaKcJclY-IIzOnDz-2" target="qkLTvaKcJclY-IIzOnDz-34">
          <mxGeometry relative="1" as="geometry" />
        </mxCell>
        <mxCell id="qkLTvaKcJclY-IIzOnDz-38" value="" style="edgeStyle=orthogonalEdgeStyle;rounded=0;orthogonalLoop=1;jettySize=auto;html=1;" edge="1" parent="1" source="qkLTvaKcJclY-IIzOnDz-2" target="qkLTvaKcJclY-IIzOnDz-37">
          <mxGeometry relative="1" as="geometry" />
        </mxCell>
        <mxCell id="qkLTvaKcJclY-IIzOnDz-2" value="Lock PLT tokens" style="ellipse;whiteSpace=wrap;html=1;aspect=fixed;" vertex="1" parent="1">
          <mxGeometry x="262" y="320" width="80" height="80" as="geometry" />
        </mxCell>
        <mxCell id="qkLTvaKcJclY-IIzOnDz-5" style="edgeStyle=orthogonalEdgeStyle;rounded=0;orthogonalLoop=1;jettySize=auto;html=1;" edge="1" parent="1" source="qkLTvaKcJclY-IIzOnDz-4" target="qkLTvaKcJclY-IIzOnDz-1">
          <mxGeometry relative="1" as="geometry" />
        </mxCell>
        <mxCell id="qkLTvaKcJclY-IIzOnDz-4" value="" style="image;aspect=fixed;perimeter=ellipsePerimeter;html=1;align=center;shadow=0;dashed=0;fontColor=#4277BB;labelBackgroundColor=default;fontSize=12;spacingTop=3;image=img/lib/ibm/blockchain/wallet.svg;" vertex="1" parent="1">
          <mxGeometry x="12" y="330" width="60" height="60" as="geometry" />
        </mxCell>
        <mxCell id="qkLTvaKcJclY-IIzOnDz-19" style="edgeStyle=orthogonalEdgeStyle;rounded=0;orthogonalLoop=1;jettySize=auto;html=1;" edge="1" parent="1" source="qkLTvaKcJclY-IIzOnDz-6" target="qkLTvaKcJclY-IIzOnDz-15">
          <mxGeometry relative="1" as="geometry" />
        </mxCell>
        <mxCell id="qkLTvaKcJclY-IIzOnDz-21" value="" style="edgeStyle=orthogonalEdgeStyle;rounded=0;orthogonalLoop=1;jettySize=auto;html=1;entryX=0.5;entryY=1;entryDx=0;entryDy=0;" edge="1" parent="1" source="qkLTvaKcJclY-IIzOnDz-6" target="qkLTvaKcJclY-IIzOnDz-25">
          <mxGeometry relative="1" as="geometry" />
        </mxCell>
        <mxCell id="qkLTvaKcJclY-IIzOnDz-42" style="edgeStyle=orthogonalEdgeStyle;rounded=0;orthogonalLoop=1;jettySize=auto;html=1;entryX=0;entryY=0.5;entryDx=0;entryDy=0;" edge="1" parent="1" source="qkLTvaKcJclY-IIzOnDz-6" target="qkLTvaKcJclY-IIzOnDz-33">
          <mxGeometry relative="1" as="geometry" />
        </mxCell>
        <mxCell id="qkLTvaKcJclY-IIzOnDz-6" value="AI model" style="rounded=1;whiteSpace=wrap;html=1;" vertex="1" parent="1">
          <mxGeometry x="560" y="330" width="120" height="60" as="geometry" />
        </mxCell>
        <mxCell id="qkLTvaKcJclY-IIzOnDz-9" style="edgeStyle=orthogonalEdgeStyle;rounded=0;orthogonalLoop=1;jettySize=auto;html=1;entryX=0.5;entryY=1;entryDx=0;entryDy=0;" edge="1" parent="1" source="qkLTvaKcJclY-IIzOnDz-10" target="qkLTvaKcJclY-IIzOnDz-2">
          <mxGeometry relative="1" as="geometry">
            <mxPoint x="347" y="440" as="targetPoint" />
          </mxGeometry>
        </mxCell>
        <mxCell id="qkLTvaKcJclY-IIzOnDz-8" value="" style="image;aspect=fixed;perimeter=ellipsePerimeter;html=1;align=center;shadow=0;dashed=0;fontColor=#4277BB;labelBackgroundColor=default;fontSize=12;spacingTop=3;image=img/lib/ibm/blockchain/wallet.svg;" vertex="1" parent="1">
          <mxGeometry x="12" y="550" width="60" height="60" as="geometry" />
        </mxCell>
        <mxCell id="qkLTvaKcJclY-IIzOnDz-11" value="" style="edgeStyle=orthogonalEdgeStyle;rounded=0;orthogonalLoop=1;jettySize=auto;html=1;entryX=0;entryY=0.5;entryDx=0;entryDy=0;" edge="1" parent="1" source="qkLTvaKcJclY-IIzOnDz-8" target="qkLTvaKcJclY-IIzOnDz-10">
          <mxGeometry relative="1" as="geometry">
            <mxPoint x="72" y="580" as="sourcePoint" />
            <mxPoint x="412" y="510" as="targetPoint" />
          </mxGeometry>
        </mxCell>
        <mxCell id="qkLTvaKcJclY-IIzOnDz-14" style="edgeStyle=orthogonalEdgeStyle;rounded=0;orthogonalLoop=1;jettySize=auto;html=1;entryX=0;entryY=0.5;entryDx=0;entryDy=0;" edge="1" parent="1" source="qkLTvaKcJclY-IIzOnDz-10" target="qkLTvaKcJclY-IIzOnDz-12">
          <mxGeometry relative="1" as="geometry" />
        </mxCell>
        <mxCell id="qkLTvaKcJclY-IIzOnDz-10" value="Collaborate" style="rounded=1;whiteSpace=wrap;html=1;" vertex="1" parent="1">
          <mxGeometry x="107" y="550" width="120" height="60" as="geometry" />
        </mxCell>
        <mxCell id="qkLTvaKcJclY-IIzOnDz-13" style="edgeStyle=orthogonalEdgeStyle;rounded=0;orthogonalLoop=1;jettySize=auto;html=1;entryX=0.5;entryY=1;entryDx=0;entryDy=0;" edge="1" parent="1" source="qkLTvaKcJclY-IIzOnDz-12" target="qkLTvaKcJclY-IIzOnDz-16">
          <mxGeometry relative="1" as="geometry" />
        </mxCell>
        <mxCell id="qkLTvaKcJclY-IIzOnDz-12" value="Data set" style="shape=datastore;whiteSpace=wrap;html=1;" vertex="1" parent="1">
          <mxGeometry x="590" y="550" width="60" height="60" as="geometry" />
        </mxCell>
        <mxCell id="qkLTvaKcJclY-IIzOnDz-24" value="" style="edgeStyle=orthogonalEdgeStyle;rounded=0;orthogonalLoop=1;jettySize=auto;html=1;entryX=0.5;entryY=1;entryDx=0;entryDy=0;" edge="1" parent="1" source="qkLTvaKcJclY-IIzOnDz-15" target="qkLTvaKcJclY-IIzOnDz-61">
          <mxGeometry relative="1" as="geometry" />
        </mxCell>
        <mxCell id="qkLTvaKcJclY-IIzOnDz-15" value="Accuracy&lt;br&gt;meter" style="rounded=1;whiteSpace=wrap;html=1;" vertex="1" parent="1">
          <mxGeometry x="720" y="440" width="120" height="60" as="geometry" />
        </mxCell>
        <mxCell id="qkLTvaKcJclY-IIzOnDz-17" value="" style="edgeStyle=orthogonalEdgeStyle;rounded=0;orthogonalLoop=1;jettySize=auto;html=1;" edge="1" parent="1" source="qkLTvaKcJclY-IIzOnDz-16" target="qkLTvaKcJclY-IIzOnDz-6">
          <mxGeometry relative="1" as="geometry" />
        </mxCell>
        <mxCell id="qkLTvaKcJclY-IIzOnDz-18" value="" style="edgeStyle=orthogonalEdgeStyle;rounded=0;orthogonalLoop=1;jettySize=auto;html=1;" edge="1" parent="1" source="qkLTvaKcJclY-IIzOnDz-16" target="qkLTvaKcJclY-IIzOnDz-15">
          <mxGeometry relative="1" as="geometry" />
        </mxCell>
        <mxCell id="qkLTvaKcJclY-IIzOnDz-16" value="Train" style="ellipse;whiteSpace=wrap;html=1;aspect=fixed;" vertex="1" parent="1">
          <mxGeometry x="580" y="430" width="80" height="80" as="geometry" />
        </mxCell>
        <mxCell id="qkLTvaKcJclY-IIzOnDz-27" style="edgeStyle=orthogonalEdgeStyle;rounded=0;orthogonalLoop=1;jettySize=auto;html=1;" edge="1" parent="1" source="qkLTvaKcJclY-IIzOnDz-20" target="qkLTvaKcJclY-IIzOnDz-23">
          <mxGeometry relative="1" as="geometry" />
        </mxCell>
        <mxCell id="qkLTvaKcJclY-IIzOnDz-35" style="edgeStyle=orthogonalEdgeStyle;rounded=0;orthogonalLoop=1;jettySize=auto;html=1;entryX=0.5;entryY=0;entryDx=0;entryDy=0;" edge="1" parent="1" source="qkLTvaKcJclY-IIzOnDz-20" target="qkLTvaKcJclY-IIzOnDz-34">
          <mxGeometry relative="1" as="geometry" />
        </mxCell>
        <mxCell id="qkLTvaKcJclY-IIzOnDz-20" value="Deploy&lt;br&gt;model&lt;br&gt;Tokens" style="ellipse;whiteSpace=wrap;html=1;aspect=fixed;" vertex="1" parent="1">
          <mxGeometry x="580" y="90" width="80" height="80" as="geometry" />
        </mxCell>
        <mxCell id="qkLTvaKcJclY-IIzOnDz-32" style="edgeStyle=orthogonalEdgeStyle;rounded=0;orthogonalLoop=1;jettySize=auto;html=1;entryX=0;entryY=0.5;entryDx=0;entryDy=0;" edge="1" parent="1" source="qkLTvaKcJclY-IIzOnDz-23" target="qkLTvaKcJclY-IIzOnDz-28">
          <mxGeometry relative="1" as="geometry" />
        </mxCell>
        <mxCell id="qkLTvaKcJclY-IIzOnDz-23" value="Release&lt;br&gt;Rewards" style="rounded=1;whiteSpace=wrap;html=1;" vertex="1" parent="1">
          <mxGeometry x="720" y="100" width="120" height="60" as="geometry" />
        </mxCell>
        <mxCell id="qkLTvaKcJclY-IIzOnDz-26" value="" style="edgeStyle=orthogonalEdgeStyle;rounded=0;orthogonalLoop=1;jettySize=auto;html=1;" edge="1" parent="1" source="qkLTvaKcJclY-IIzOnDz-25" target="qkLTvaKcJclY-IIzOnDz-20">
          <mxGeometry relative="1" as="geometry" />
        </mxCell>
        <mxCell id="qkLTvaKcJclY-IIzOnDz-25" value="Factory" style="rounded=1;whiteSpace=wrap;html=1;" vertex="1" parent="1">
          <mxGeometry x="560" y="220" width="120" height="60" as="geometry" />
        </mxCell>
        <mxCell id="qkLTvaKcJclY-IIzOnDz-28" value="" style="image;aspect=fixed;perimeter=ellipsePerimeter;html=1;align=center;shadow=0;dashed=0;fontColor=#4277BB;labelBackgroundColor=default;fontSize=12;spacingTop=3;image=img/lib/ibm/blockchain/wallet.svg;" vertex="1" parent="1">
          <mxGeometry x="900" y="100" width="60" height="60" as="geometry" />
        </mxCell>
        <mxCell id="qkLTvaKcJclY-IIzOnDz-30" value="Collaborator" style="text;html=1;align=center;verticalAlign=middle;resizable=0;points=[];autosize=1;strokeColor=none;fillColor=none;" vertex="1" parent="1">
          <mxGeometry x="885" y="158" width="90" height="30" as="geometry" />
        </mxCell>
        <mxCell id="qkLTvaKcJclY-IIzOnDz-55" value="" style="edgeStyle=orthogonalEdgeStyle;rounded=0;orthogonalLoop=1;jettySize=auto;html=1;" edge="1" parent="1" source="qkLTvaKcJclY-IIzOnDz-33" target="qkLTvaKcJclY-IIzOnDz-53">
          <mxGeometry relative="1" as="geometry" />
        </mxCell>
        <mxCell id="qkLTvaKcJclY-IIzOnDz-33" value="API" style="rounded=1;whiteSpace=wrap;html=1;" vertex="1" parent="1">
          <mxGeometry x="870" y="330" width="120" height="60" as="geometry" />
        </mxCell>
        <mxCell id="qkLTvaKcJclY-IIzOnDz-34" value="IDO" style="rounded=1;whiteSpace=wrap;html=1;" vertex="1" parent="1">
          <mxGeometry x="242" y="220" width="120" height="60" as="geometry" />
        </mxCell>
        <mxCell id="qkLTvaKcJclY-IIzOnDz-39" value="" style="edgeStyle=orthogonalEdgeStyle;rounded=0;orthogonalLoop=1;jettySize=auto;html=1;" edge="1" parent="1" source="qkLTvaKcJclY-IIzOnDz-37" target="qkLTvaKcJclY-IIzOnDz-6">
          <mxGeometry relative="1" as="geometry" />
        </mxCell>
        <mxCell id="qkLTvaKcJclY-IIzOnDz-37" value="Release AI" style="rounded=1;whiteSpace=wrap;html=1;" vertex="1" parent="1">
          <mxGeometry x="390" y="330" width="120" height="60" as="geometry" />
        </mxCell>
        <mxCell id="qkLTvaKcJclY-IIzOnDz-41" value="" style="edgeStyle=orthogonalEdgeStyle;rounded=0;orthogonalLoop=1;jettySize=auto;html=1;" edge="1" parent="1" source="qkLTvaKcJclY-IIzOnDz-40" target="qkLTvaKcJclY-IIzOnDz-25">
          <mxGeometry relative="1" as="geometry" />
        </mxCell>
        <mxCell id="qkLTvaKcJclY-IIzOnDz-40" value="ERC20&lt;br&gt;Implementation" style="shape=process;whiteSpace=wrap;html=1;backgroundOutline=1;" vertex="1" parent="1">
          <mxGeometry x="390" y="220" width="120" height="60" as="geometry" />
        </mxCell>
        <mxCell id="qkLTvaKcJclY-IIzOnDz-43" value="Collaborator" style="text;html=1;align=center;verticalAlign=middle;resizable=0;points=[];autosize=1;strokeColor=none;fillColor=none;" vertex="1" parent="1">
          <mxGeometry x="-3" y="400" width="90" height="30" as="geometry" />
        </mxCell>
        <mxCell id="qkLTvaKcJclY-IIzOnDz-44" value="Collaborator" style="text;html=1;align=center;verticalAlign=middle;resizable=0;points=[];autosize=1;strokeColor=none;fillColor=none;" vertex="1" parent="1">
          <mxGeometry x="-3" y="620" width="90" height="30" as="geometry" />
        </mxCell>
        <mxCell id="qkLTvaKcJclY-IIzOnDz-51" value="" style="edgeStyle=orthogonalEdgeStyle;rounded=0;orthogonalLoop=1;jettySize=auto;html=1;" edge="1" parent="1" source="qkLTvaKcJclY-IIzOnDz-45" target="qkLTvaKcJclY-IIzOnDz-48">
          <mxGeometry relative="1" as="geometry" />
        </mxCell>
        <mxCell id="qkLTvaKcJclY-IIzOnDz-45" value="" style="image;aspect=fixed;perimeter=ellipsePerimeter;html=1;align=center;shadow=0;dashed=0;fontColor=#4277BB;labelBackgroundColor=default;fontSize=12;spacingTop=3;image=img/lib/ibm/blockchain/wallet.svg;" vertex="1" parent="1">
          <mxGeometry x="1060" y="580" width="60" height="60" as="geometry" />
        </mxCell>
        <mxCell id="qkLTvaKcJclY-IIzOnDz-46" value="User" style="text;html=1;align=center;verticalAlign=middle;resizable=0;points=[];autosize=1;strokeColor=none;fillColor=none;" vertex="1" parent="1">
          <mxGeometry x="1065" y="640" width="50" height="30" as="geometry" />
        </mxCell>
        <mxCell id="qkLTvaKcJclY-IIzOnDz-50" value="" style="edgeStyle=orthogonalEdgeStyle;rounded=0;orthogonalLoop=1;jettySize=auto;html=1;" edge="1" parent="1" source="qkLTvaKcJclY-IIzOnDz-48" target="qkLTvaKcJclY-IIzOnDz-49">
          <mxGeometry relative="1" as="geometry" />
        </mxCell>
        <mxCell id="qkLTvaKcJclY-IIzOnDz-48" value="Send&lt;br&gt;Model&lt;br&gt;tokens" style="ellipse;whiteSpace=wrap;html=1;aspect=fixed;" vertex="1" parent="1">
          <mxGeometry x="1050" y="430" width="80" height="80" as="geometry" />
        </mxCell>
        <mxCell id="qkLTvaKcJclY-IIzOnDz-52" value="" style="edgeStyle=orthogonalEdgeStyle;rounded=0;orthogonalLoop=1;jettySize=auto;html=1;" edge="1" parent="1" source="qkLTvaKcJclY-IIzOnDz-49" target="qkLTvaKcJclY-IIzOnDz-33">
          <mxGeometry relative="1" as="geometry" />
        </mxCell>
        <mxCell id="qkLTvaKcJclY-IIzOnDz-60" style="edgeStyle=orthogonalEdgeStyle;rounded=0;orthogonalLoop=1;jettySize=auto;html=1;" edge="1" parent="1" source="qkLTvaKcJclY-IIzOnDz-49" target="qkLTvaKcJclY-IIzOnDz-56">
          <mxGeometry relative="1" as="geometry" />
        </mxCell>
        <mxCell id="qkLTvaKcJclY-IIzOnDz-49" value="Subscription" style="rounded=1;whiteSpace=wrap;html=1;" vertex="1" parent="1">
          <mxGeometry x="1030" y="330" width="120" height="60" as="geometry" />
        </mxCell>
        <mxCell id="qkLTvaKcJclY-IIzOnDz-54" style="edgeStyle=orthogonalEdgeStyle;rounded=0;orthogonalLoop=1;jettySize=auto;html=1;entryX=0;entryY=0.5;entryDx=0;entryDy=0;" edge="1" parent="1" source="qkLTvaKcJclY-IIzOnDz-53" target="qkLTvaKcJclY-IIzOnDz-45">
          <mxGeometry relative="1" as="geometry">
            <Array as="points">
              <mxPoint x="930" y="610" />
            </Array>
          </mxGeometry>
        </mxCell>
        <mxCell id="qkLTvaKcJclY-IIzOnDz-53" value="API&lt;div&gt;Key&lt;/div&gt;" style="ellipse;whiteSpace=wrap;html=1;aspect=fixed;" vertex="1" parent="1">
          <mxGeometry x="890" y="430" width="80" height="80" as="geometry" />
        </mxCell>
        <mxCell id="qkLTvaKcJclY-IIzOnDz-59" style="edgeStyle=orthogonalEdgeStyle;rounded=0;orthogonalLoop=1;jettySize=auto;html=1;entryX=1;entryY=0.5;entryDx=0;entryDy=0;" edge="1" parent="1" source="qkLTvaKcJclY-IIzOnDz-56" target="qkLTvaKcJclY-IIzOnDz-28">
          <mxGeometry relative="1" as="geometry" />
        </mxCell>
        <mxCell id="qkLTvaKcJclY-IIzOnDz-56" value="Token Distribution" style="rounded=1;whiteSpace=wrap;html=1;" vertex="1" parent="1">
          <mxGeometry x="1030" y="100" width="120" height="60" as="geometry" />
        </mxCell>
        <mxCell id="qkLTvaKcJclY-IIzOnDz-62" value="" style="edgeStyle=orthogonalEdgeStyle;rounded=0;orthogonalLoop=1;jettySize=auto;html=1;" edge="1" parent="1" source="qkLTvaKcJclY-IIzOnDz-61" target="qkLTvaKcJclY-IIzOnDz-23">
          <mxGeometry relative="1" as="geometry" />
        </mxCell>
        <mxCell id="qkLTvaKcJclY-IIzOnDz-61" value="Is&lt;br&gt;Accurate" style="rhombus;whiteSpace=wrap;html=1;" vertex="1" parent="1">
          <mxGeometry x="740" y="210" width="80" height="80" as="geometry" />
        </mxCell>
      </root>
    </mxGraphModel>
  </diagram>
</mxfile>
